# xmcd
#
# Track frame offsets:
#	150
#	17921
#	31636
#	37493
#
# Disc length: 675 seconds
#
# Revision: 0
# Processed by: cddbd v1.5.2PL0 Copyright (c) Steve Scherf et al.
# Submitted via: EasyCDDAExtractor 10.0.3.1
#
DISCID=2c02a104
DTITLE=Soldiers Of The Sun
DYEAR=2006
DGENRE=Blues
TTITLE0=Jump Up
TTITLE1=Bandaid
TTITLE2=I Donate For A Tax Deduction
TTITLE3=Girl
EXTD=
EXTT0=
EXTT1=
EXTT2=
EXTT3=
PLAYORDER=
